<svg width="25" height="24" viewBox="0 0 25 24" fill="none" xmlns="http://www.w3.org/2000/svg">
<path d="M21.75 13V8.5C21.75 7.17392 21.2232 5.90215 20.2855 4.96447C19.3479 4.02678 18.0761 3.5 16.75 3.5H8.25C6.92392 3.5 5.65215 4.02678 4.71447 4.96447C3.77678 5.90215 3.25 7.17392 3.25 8.5V15.5C3.25 16.1566 3.37933 16.8068 3.6306 17.4134C3.88188 18.02 4.25017 18.5712 4.71447 19.0355C5.65215 19.9732 6.92392 20.5 8.25 20.5H14.51" stroke="#542DFF" stroke-width="1.5" stroke-linecap="round" stroke-linejoin="round"/>
<path d="M3.51001 17L6.25001 13.8C6.60985 13.4426 7.08212 13.2205 7.58689 13.1713C8.09166 13.1221 8.59793 13.2488 9.02001 13.53C9.44209 13.8112 9.94836 13.9379 10.4531 13.8887C10.9579 13.8395 11.4302 13.6174 11.79 13.26L14.12 10.93C14.7895 10.2582 15.6759 9.84621 16.621 9.76745C17.5662 9.68869 18.5086 9.94832 19.28 10.5L21.75 12.41M8.51001 10.17C8.728 10.1687 8.9436 10.1245 9.1445 10.0398C9.3454 9.95518 9.52766 9.83181 9.68088 9.67673C9.83409 9.52166 9.95527 9.33792 10.0375 9.13602C10.1197 8.93412 10.1613 8.718 10.16 8.50001C10.1587 8.28201 10.1145 8.06641 10.0298 7.86551C9.94519 7.66461 9.82181 7.48235 9.66674 7.32914C9.51166 7.17592 9.32793 7.05475 9.12603 6.97254C8.92412 6.89033 8.708 6.84869 8.49001 6.85001C8.04975 6.85266 7.62858 7.03009 7.31914 7.34328C7.00971 7.65647 6.83736 8.07975 6.84001 8.52001C6.84266 8.96027 7.0201 9.38144 7.33328 9.69087C7.64647 10.0003 8.06975 10.1727 8.51001 10.17Z" stroke="#542DFF" stroke-width="1.5" stroke-linecap="round" stroke-linejoin="round"/>
<path d="M19.207 15V20" stroke="#542DFF" stroke-width="1.5" stroke-miterlimit="10" stroke-linecap="round"/>
<path d="M21.5 17.105L19.533 15.138C19.4903 15.0951 19.4395 15.061 19.3835 15.0377C19.3276 15.0145 19.2676 15.0025 19.207 15.0025C19.1464 15.0025 19.0864 15.0145 19.0305 15.0377C18.9745 15.061 18.9237 15.0951 18.881 15.138L16.914 17.105" stroke="#542DFF" stroke-width="1.5" stroke-linecap="round" stroke-linejoin="round"/>
</svg>
