<svg width="375" height="812" viewBox="0 0 375 812" fill="none" xmlns="http://www.w3.org/2000/svg">
<rect x="253.442" y="104.749" width="30.482" height="5.28" transform="rotate(-153 253.442 104.749)" fill="#683CEC"/>
<rect x="43.0818" y="328.749" width="11.482" height="9.28" transform="rotate(30 43.0818 328.749)" fill="#7142F1" fill-opacity="0.85"/>
<rect x="286.442" y="592.749" width="17.482" height="8.28" transform="rotate(-25 286.442 592.749)" fill="#9840F1" fill-opacity="0.75"/>
<rect x="363.442" y="272.749" width="15.482" height="7.28" transform="rotate(-27 363.442 272.749)" fill="#56B8A5" fill-opacity="0.85"/>
<rect x="50.4418" y="633.749" width="14.482" height="8.28" transform="rotate(-51 50.4418 633.749)" fill="#533EF3" fill-opacity="0.35"/>
<rect x="54.4418" y="394.749" width="8.482" height="4.28" transform="rotate(-168 54.4418 394.749)" fill="#662CE3" fill-opacity="0.35"/>
<rect x="114.723" y="298.446" width="14.482" height="8.28" transform="rotate(-148 114.723 298.446)" fill="#3033D8" fill-opacity="0.35"/>
<rect x="234.442" y="34.7495" width="37.482" height="5.28" transform="rotate(6 234.442 34.7495)" fill="#5656B8" fill-opacity="0.9"/>
<rect x="77.4418" y="12.7495" width="9.482" height="7.28" transform="rotate(-131 77.4418 12.7495)" fill="#3DBD96" fill-opacity="0.65"/>
<rect x="335.442" y="412.749" width="22.482" height="8.28" transform="rotate(-159 335.442 412.749)" fill="#3DBD96"/>
<rect x="98.4418" y="98.7495" width="25.482" height="4.28" transform="rotate(-171 98.4418 98.7495)" fill="#683CEC"/>
<rect x="94.4418" y="705.749" width="33.482" height="7.28" transform="rotate(-19 94.4418 705.749)" fill="#5656B8" fill-opacity="0.45"/>
<rect x="350.442" y="572.749" width="29.482" height="4.28" transform="rotate(-178 350.442 572.749)" fill="#4263E9" fill-opacity="0.65"/>
<rect x="322.919" y="140.596" width="32.482" height="4.28" transform="rotate(-179 322.919 140.596)" fill="#943CEC" fill-opacity="0.85"/>
<rect x="71.8707" y="280.718" width="36.482" height="4.28" transform="rotate(158 71.8707 280.718)" fill="#4030D0" fill-opacity="0.9"/>
<rect x="359.442" y="729.749" width="16.482" height="8.28" transform="rotate(-136 359.442 729.749)" fill="#7142F1" fill-opacity="0.85"/>
<rect x="296.442" y="608.749" width="31.482" height="6.28" transform="rotate(-136 296.442 608.749)" fill="#9840F1" fill-opacity="0.75"/>
<rect x="329.442" y="787.749" width="15.482" height="6.28" transform="rotate(96 329.442 787.749)" fill="#663DBD" fill-opacity="0.85"/>
<rect x="163.44" y="309.749" width="11.482" height="7.28" transform="rotate(74 163.44 309.749)" fill="#3653C4" fill-opacity="0.75"/>
<rect x="56.4418" y="28.7495" width="29.482" height="6.28" transform="rotate(133 56.4418 28.7495)" fill="#943CEC" fill-opacity="0.85"/>
<rect x="180.442" y="595.218" width="23.482" height="8.28" transform="rotate(-35 180.442 595.218)" fill="#7142F1" fill-opacity="0.85"/>
<rect x="339.442" y="273.749" width="36.482" height="4.28" transform="rotate(62 339.442 273.749)" fill="#9840F1" fill-opacity="0.75"/>
<rect x="325.442" y="567.749" width="17.482" height="7.28" transform="rotate(-91 325.442 567.749)" fill="#554DF0"/>
<rect x="367.442" y="287.749" width="27.482" height="8.28" transform="rotate(-68 367.442 287.749)" fill="#3033D8" fill-opacity="0.35"/>
<rect x="-9.55815" y="558.749" width="8.482" height="8.28" transform="rotate(-52 -9.55815 558.749)" fill="#6A36CC" fill-opacity="0.6"/>
<rect x="363.442" y="340.749" width="29.482" height="6.28" transform="rotate(109 363.442 340.749)" fill="#943CEC" fill-opacity="0.85"/>
<rect x="377.442" y="112.749" width="14.482" height="4.28" transform="rotate(99 377.442 112.749)" fill="#7B2CD7" fill-opacity="0.45"/>
<rect x="156.442" y="6.74945" width="6.482" height="5.28" transform="rotate(-93 156.442 6.74945)" fill="#9840F1" fill-opacity="0.75"/>
<rect x="290.713" y="286.208" width="36.482" height="4.28" transform="rotate(-149 290.713 286.208)" fill="#943CEC" fill-opacity="0.85"/>
<rect x="369.442" y="588.749" width="33.482" height="4.28" transform="rotate(-115 369.442 588.749)" fill="#733FF6" fill-opacity="0.75"/>
<rect x="173.442" y="758.749" width="6.482" height="6.28" transform="rotate(113 173.442 758.749)" fill="#FDA5A5" fill-opacity="0.45"/>
<rect x="2.44185" y="717.749" width="35.482" height="7.28" transform="rotate(57 2.44185 717.749)" fill="#FDA5A5" fill-opacity="0.45"/>
<rect x="26.4418" y="155.749" width="36.482" height="8.28" transform="rotate(57 26.4418 155.749)" fill="#943CEC" fill-opacity="0.85"/>
<rect x="93.1638" y="229.379" width="7.482" height="8.28" transform="rotate(116 93.1638 229.379)" fill="#3DBD96" fill-opacity="0.65"/>
<rect x="-11.5581" y="263.749" width="20.482" height="4.28" transform="rotate(-19 -11.5581 263.749)" fill="#5656B8" fill-opacity="0.9"/>
<rect x="3.44185" y="386.749" width="25.482" height="7.28" transform="rotate(7 3.44185 386.749)" fill="#6A36CC" fill-opacity="0.6"/>
<rect x="277.442" y="22.7495" width="10.482" height="9.28" transform="rotate(170 277.442 22.7495)" fill="#3653C4" fill-opacity="0.75"/>
<rect x="108.442" y="157.749" width="10.482" height="6.28" transform="rotate(-129 108.442 157.749)" fill="#3033D8" fill-opacity="0.35"/>
<rect x="282.442" y="183.749" width="18.482" height="8.28" transform="rotate(92 282.442 183.749)" fill="#7142F1" fill-opacity="0.85"/>
<rect x="52.4418" y="791.749" width="31.482" height="8.28" transform="rotate(100 52.4418 791.749)" fill="#7638FB" fill-opacity="0.65"/>
<rect x="202.442" y="635.749" width="15.482" height="8.28" transform="rotate(120 202.442 635.749)" fill="#663DBD" fill-opacity="0.85"/>
<rect x="5.44185" y="186.749" width="27.482" height="4.28" transform="rotate(-27 5.44185 186.749)" fill="#6A37D8"/>
<rect x="237.442" y="169.433" width="8.482" height="9.28" transform="rotate(-52 237.442 169.433)" fill="#533EF3" fill-opacity="0.35"/>
<rect x="288.442" y="203.749" width="32.482" height="6.28" transform="rotate(71 288.442 203.749)" fill="#683CEC"/>
<rect x="321.442" y="402.749" width="20.482" height="5.28" transform="rotate(66 321.442 402.749)" fill="#6B3CEC" fill-opacity="0.6"/>
<rect x="66.4418" y="772.749" width="21.482" height="5.28" transform="rotate(-16 66.4418 772.749)" fill="#FDA5A5" fill-opacity="0.6"/>
<rect x="339.442" y="25.7495" width="35.482" height="7.28" transform="rotate(52 339.442 25.7495)" fill="#FDA5A5" fill-opacity="0.45"/>
<circle cx="38.2568" cy="675.564" r="2.815" fill="#554DF0"/>
<circle cx="173.257" cy="126.564" r="6.815" fill="#3DBD96" fill-opacity="0.65"/>
<circle cx="53.2568" cy="543.564" r="6.815" fill="#533EF3" fill-opacity="0.35"/>
<circle cx="7.25685" cy="223.564" r="5.815" fill="#554DF0"/>
<circle cx="279.757" cy="198.064" r="6.315" fill="#733FF6" fill-opacity="0.75"/>
<circle cx="292.757" cy="600.064" r="2.315" fill="#7B2CD7" fill-opacity="0.45"/>
<circle cx="216.257" cy="331.564" r="2.815" fill="#5030E0" fill-opacity="0.6"/>
<circle cx="198.257" cy="781.564" r="3.815" fill="#2D4EDD" fill-opacity="0.9"/>
<circle cx="99.2569" cy="740.564" r="4.815" fill="#623FE1" fill-opacity="0.9"/>
<circle cx="26.2569" cy="369.564" r="4.815" fill="#5030E0" fill-opacity="0.6"/>
<circle cx="298.757" cy="56.0644" r="5.315" fill="#6B3CEC" fill-opacity="0.6"/>
<circle cx="99.2569" cy="450.564" r="3.815" fill="#315DD8" fill-opacity="0.35"/>
<circle cx="332.757" cy="393.064" r="3.315" fill="#56B8A5" fill-opacity="0.85"/>
<circle cx="332.757" cy="175.064" r="3.315" fill="#3DBD96" fill-opacity="0.75"/>
<circle cx="11.2569" cy="287.564" r="5.815" fill="#7638FB" fill-opacity="0.65"/>
<circle cx="53.2568" cy="801.564" r="5.815" fill="#FDA5A5" fill-opacity="0.6"/>
<circle cx="265.257" cy="744.564" r="6.815" fill="#4030D0" fill-opacity="0.9"/>
<circle cx="342.257" cy="531.564" r="2.815" fill="#5656B8" fill-opacity="0.9"/>
<circle cx="127.757" cy="9.06445" r="3.315" fill="#4030D0" fill-opacity="0.9"/>
<circle cx="307.757" cy="114.064" r="2.315" fill="#4263E9" fill-opacity="0.65"/>
<circle cx="31.2569" cy="80.5645" r="6.815" fill="#943CEC" fill-opacity="0.85"/>
<circle cx="114.757" cy="160.064" r="3.315" fill="#6B3CEC" fill-opacity="0.6"/>
<circle cx="229.757" cy="258.064" r="2.315" fill="#7B2CD7" fill-opacity="0.45"/>
<circle cx="365.757" cy="526.064" r="3.315" fill="#3DBD96" fill-opacity="0.45"/>
<circle cx="141.757" cy="154.064" r="3.315" fill="#554DF0"/>
<circle cx="105.757" cy="484.064" r="6.315" fill="#3653C4" fill-opacity="0.75"/>
<circle cx="242.757" cy="449.064" r="6.315" fill="#7638FB" fill-opacity="0.65"/>
<circle cx="110.757" cy="642.064" r="6.315" fill="#3033D8" fill-opacity="0.35"/>
<circle cx="64.2569" cy="733.564" r="4.815" fill="#4263E9" fill-opacity="0.65"/>
<circle cx="152.757" cy="563.064" r="4.315" fill="#662CE3" fill-opacity="0.35"/>
<circle cx="149.257" cy="459.564" r="6.815" fill="#4263E9" fill-opacity="0.65"/>
<circle cx="224.757" cy="137.064" r="5.315" fill="#4263E9" fill-opacity="0.65"/>
<circle cx="350.257" cy="614.564" r="5.815" fill="#733FF6" fill-opacity="0.75"/>
<circle cx="25.7569" cy="438.064" r="4.315" fill="#3DBD96" fill-opacity="0.45"/>
<circle cx="90.2569" cy="678.564" r="2.815" fill="#4030D0" fill-opacity="0.9"/>
<circle cx="147.257" cy="546.564" r="4.815" fill="#7638FB" fill-opacity="0.65"/>
<circle cx="150.757" cy="48.0644" r="2.315" fill="#56B8A5" fill-opacity="0.85"/>
<circle cx="285.257" cy="20.5645" r="6.815" fill="#533EF3" fill-opacity="0.35"/>
<circle cx="90.2569" cy="177.564" r="2.815" fill="#7B2CD7" fill-opacity="0.45"/>
<circle cx="89.7569" cy="14.0645" r="4.315" fill="#315DD8" fill-opacity="0.35"/>
<circle cx="1.25685" cy="429.564" r="5.815" fill="#733FF6" fill-opacity="0.75"/>
<circle cx="262.757" cy="812.064" r="6.315" fill="#3DBD96" fill-opacity="0.75"/>
</svg>
